# xmcd CD database file
#
# Track frame offsets:
#	150
#	9300
#	36317
#	49887
#	68050
#	92700
#	109587
#	123390
#	139105
#	158512
#	178262
#	195550
#	208502
#	235805
#
# Disc length: 3249 seconds
#
# Revision: 0
# Processed by: cddbd v1.4PL0 Copyright (c) Steve Scherf et al.
# Submitted via: CDex 1.50Beta7
#
DISCID=b90caf0e
DTITLE=Solid Senders [Austin TX ] - Everything's Gonna Be Allright
DYEAR=1990
DGENRE=Blues
TTITLE0=Congo Mambo, part 1
TTITLE1=Glamour Girl
TTITLE2=Well I Done Got It Over It
TTITLE3=The Georgia Stop
TTITLE4=Stone Crazy
TTITLE5=Shake 'Em
TTITLE6=You Broke My Heart
TTITLE7=Three Hundred Pounds of Yoy
TTITLE8=I'm Gonna Build a Playhouse
TTITLE9=I'd Walk Thirty Miles
TTITLE10=Rich Man's Money
TTITLE11=Beautiful Delilah
TTITLE12=Everything's Gonna be Allright
TTITLE13=Congo Mambo, part 2
EXTD=YEAR: 1990
EXTT0=
EXTT1=
EXTT2=
EXTT3=
EXTT4=
EXTT5=
EXTT6=
EXTT7=
EXTT8=
EXTT9=
EXTT10=
EXTT11=
EXTT12=
EXTT13=
PLAYORDER=
